<svg viewBox="0 0 809.88 809.88" xmlns="http://www.w3.org/2000/svg" xmlns:xlink="http://www.w3.org/1999/xlink" id="Layer_2" overflow="hidden"><defs/><g id="Graphic"><g><path d="M750.02 743 742.98 750.03C647.13 692.28 554.8 737.68 485.89 809.88L404.94 728.93C482.88 647.54 573.96 620.76 653.89 667.95 662.09 673.04 673.42 680.46 681.63 687.1L687.1 681.63C680.45 673.43 673.03 662.09 667.95 653.89 620.75 573.96 647.54 482.88 728.93 404.94L809.88 485.89C737.68 554.8 692.26 647.14 750.02 743Z" fill="#FFFFFF"/><path d="M809.88 323.99 728.93 404.94C647.54 327.01 620.75 235.93 667.95 155.99 673.03 147.8 680.46 136.47 687.1 128.26L681.63 122.79C673.43 129.44 662.09 136.85 653.89 141.93 573.96 189.13 482.88 162.35 404.94 80.95L485.89 0C554.8 72.2 647.14 117.62 743 59.87L750.03 66.9C692.27 162.75 737.68 255.08 809.88 323.99Z" fill="#FFFFFF"/><path d="M404.94 80.95C327 162.35 235.93 189.13 155.99 141.93 147.8 136.85 136.47 129.42 128.26 122.79L122.78 128.26C129.44 136.46 136.85 147.8 141.93 155.99 189.13 235.93 162.35 327.01 80.95 404.94L0 323.99C72.2 255.08 117.62 162.74 59.87 66.89L66.9 59.86C162.75 117.61 255.08 72.2 323.99 0L404.94 80.95Z" fill="#FFFFFF"/><path d="M404.94 728.93 323.99 809.88C255.08 737.68 162.74 692.26 66.89 750.02L59.86 742.98C117.61 647.13 72.2 554.8-1.42109e-14 485.89L80.95 404.94C162.35 482.88 189.13 573.96 141.93 653.89 136.85 662.09 129.42 673.42 122.78 681.63L128.26 687.1C136.46 680.45 147.79 673.03 155.99 667.95 235.92 620.75 327 647.54 404.94 728.93Z" fill="#FFFFFF"/></g></g></svg>